# xmcd CD database file
#
# Track frame offsets:
#	150
#	14170
#	28720
#	41417
#	54489
#	63712
#	82138
#	96204
#	112123
#	127406
#	140293
#	154065
#	168565
#	186913
#	199882
#
# Disc length: 2819 seconds
#
# Revision: 0
# Processed by: cddbd v1.5.1PL2 Copyright (c) Steve Scherf et al.
# Submitted via: CDex 1.51
#
DISCID=e40b010f
DTITLE=Various Artist - Stardust Records Presents Vocal and Jazz Ecstasy
DYEAR=2001
DGENRE=Jazz
TTITLE0=Nat King Cole and the King Cole Trio - My Lips Remember Your Kisses
TTITLE1=Marilyn Monroe - Do It Again
TTITLE2=Dizzy Gillespie feat. Charlie Parker - All the Things You Are
TTITLE3=Ray Charles - Baby Won't You Please Come Home
TTITLE4=The Blue Dahlia - Brazil
TTITLE5=Charlie Parker feat. Miles Davis - Out of Nowhere
TTITLE6=Ella Fitzgerald - Starlit Hour
TTITLE7=Count Basie and Joe Williams - Ain't Misbehavin'
TTITLE8=Billie Holiday - Don't Explain
TTITLE9=Bing Crosby - Pennies From Heaven
TTITLE10=Tony Bennett with the Count Basie Orchestra - I've Grown Accustomed To Her Face
TTITLE11=The Count Basie Orchestra fear. Billy Eckstine - Stormy Monday Blues
TTITLE12=Charles Brown - Driftin' Blues
TTITLE13=Dinah Washington - All or Nothing Blues
TTITLE14=Django Reinhardt with Stephane Grappelli and Coleman Hawkins - Stardust
EXTD=YEAR: 2001
EXTT0=
EXTT1=
EXTT2=
EXTT3=
EXTT4=
EXTT5=
EXTT6=
EXTT7=
EXTT8=
EXTT9=
EXTT10=
EXTT11=
EXTT12=
EXTT13=
EXTT14=
PLAYORDER=
